<?xml version="1.0" encoding="UTF-8" standalone="no"?>
<!DOCTYPE svg PUBLIC "-//W3C//DTD SVG 1.1//EN" "http://www.w3.org/Graphics/SVG/1.1/DTD/svg11.dtd">
<svg width="100%" height="100%" viewBox="0 0 1545 1015" version="1.1" xmlns="http://www.w3.org/2000/svg" xmlns:xlink="http://www.w3.org/1999/xlink" xml:space="preserve" xmlns:serif="http://www.serif.com/" style="fill-rule:evenodd;clip-rule:evenodd;stroke-linejoin:round;stroke-miterlimit:2;">
    <g transform="matrix(1,0,0,1,-5035,-1210)">
        <g id="OnePercent---Logo-8" serif:id="OnePercent - Logo 8" transform="matrix(0.135322,0,0,0.0889104,5391.42,1158.9)">
            <rect x="-2629" y="575" width="11407" height="11407" style="fill:white;"/>
            <g transform="matrix(2.24902,0,0,3.42301,-2638.68,271.658)">
                <g transform="matrix(0.984911,0,0,0.984911,-65.2987,14.5014)">
                    <path d="M2596.24,2082.4L2206.6,2472.03L2094.61,2360.05L2719.03,1735.62C2797.46,1656.26 2906.34,1607.05 3026.63,1607.05C3265.33,1607.05 3459.12,1800.84 3459.12,2039.54C3459.12,2278.24 3265.33,2472.03 3026.63,2472.03C2802.39,2472.03 2617.78,2301.01 2596.24,2082.4ZM3026.63,1766.25C2875.8,1766.25 2753.34,1888.71 2753.34,2039.54C2753.34,2190.37 2875.8,2312.83 3026.63,2312.83C3177.46,2312.83 3299.92,2190.37 3299.92,2039.54C3299.92,1888.71 3177.46,1766.25 3026.63,1766.25Z" style="fill:rgb(128,128,128);"/>
                </g>
                <g transform="matrix(-0.984911,-1.20617e-16,1.20617e-16,-0.984911,5145.89,3495.18)">
                    <path d="M2596.24,2082.4L2206.6,2472.03L2094.61,2360.05L2719.03,1735.62C2797.46,1656.26 2906.34,1607.05 3026.63,1607.05C3265.33,1607.05 3459.12,1800.84 3459.12,2039.54C3459.12,2278.24 3265.33,2472.03 3026.63,2472.03C2802.39,2472.03 2617.78,2301.01 2596.24,2082.4ZM3026.63,1766.25C2875.8,1766.25 2753.34,1888.71 2753.34,2039.54C2753.34,2190.37 2875.8,2312.83 3026.63,2312.83C3177.46,2312.83 3299.92,2190.37 3299.92,2039.54C3299.92,1888.71 3177.46,1766.25 3026.63,1766.25Z" style="fill:rgb(128,128,128);"/>
                </g>
            </g>
        </g>
    </g>
</svg>
