<?xml version="1.0" encoding="UTF-8" standalone="no"?>
<!DOCTYPE svg PUBLIC "-//W3C//DTD SVG 1.1//EN" "http://www.w3.org/Graphics/SVG/1.1/DTD/svg11.dtd">
<svg width="100%" height="100%" viewBox="0 0 1544 1015" version="1.1" xmlns="http://www.w3.org/2000/svg" xmlns:xlink="http://www.w3.org/1999/xlink" xml:space="preserve" xmlns:serif="http://www.serif.com/" style="fill-rule:evenodd;clip-rule:evenodd;stroke-linejoin:round;stroke-miterlimit:2;">
    <g id="OnePercent---Logo-1" serif:id="OnePercent - Logo 1" transform="matrix(0.135322,0,0,0.0889104,355.76,-51.1235)">
        <rect x="-2629" y="575" width="11407" height="11407"/>
        <g transform="matrix(52.2207,0,0,73.0842,-18521,-31786.9)">
            <g transform="matrix(0.603276,0,0,0.634367,-850.581,24.2418)">
                <path d="M1987.28,800.58C1997.08,800.58 2003.63,793.48 2003.63,782.98C2003.63,772.28 1997.08,765.08 1987.28,765.08C1977.48,765.08 1970.93,772.23 1970.93,782.98C1970.93,793.53 1977.43,800.58 1987.28,800.58ZM1975.28,782.98C1975.28,774.33 1979.98,768.73 1987.28,768.73C1994.53,768.73 1999.28,774.33 1999.28,782.98C1999.28,791.43 1994.58,796.93 1987.28,796.93C1979.98,796.93 1975.28,791.43 1975.28,782.98Z" style="fill:white;fill-rule:nonzero;"/>
            </g>
            <g transform="matrix(0.603276,0,0,0.634367,-850.581,24.2418)">
                <path d="M2007.88,800.33L2011.28,800.33C2011.48,800.33 2011.63,800.18 2011.63,799.93L2011.63,785.88C2011.63,780.88 2013.98,778.28 2018.38,778.28C2022.78,778.28 2024.83,780.73 2024.83,785.88L2024.83,799.93C2024.83,800.18 2024.98,800.33 2025.23,800.33L2028.58,800.33C2028.83,800.33 2028.98,800.18 2028.98,799.93L2028.98,785.88C2028.98,778.58 2025.78,774.73 2019.93,774.73C2016.23,774.73 2013.38,776.38 2011.63,779.38L2011.48,779.38L2011.48,775.38C2011.48,775.13 2011.33,774.98 2011.08,774.98L2007.88,774.98C2007.68,774.98 2007.53,775.13 2007.53,775.38L2007.53,799.93C2007.53,800.18 2007.68,800.33 2007.88,800.33Z" style="fill:white;fill-rule:nonzero;"/>
            </g>
            <g transform="matrix(0.603276,0,0,0.634367,-850.581,24.2418)">
                <path d="M2044.53,800.58C2050.58,800.58 2054.63,797.48 2055.63,793.03C2055.68,792.83 2055.53,792.68 2055.23,792.68L2052.03,792.68C2051.78,792.68 2051.63,792.78 2051.58,793.03C2050.73,795.58 2048.23,797.18 2044.53,797.18C2039.63,797.18 2036.73,794.13 2036.43,789.08L2055.38,789.08C2055.63,789.08 2055.78,788.93 2055.78,788.68L2055.78,787.68C2055.78,779.63 2051.53,774.73 2044.53,774.73C2037.03,774.73 2032.18,779.78 2032.18,787.68C2032.18,795.53 2036.98,800.58 2044.53,800.58ZM2036.43,785.98C2036.83,780.98 2039.73,778.13 2044.53,778.13C2048.83,778.13 2051.53,781.03 2051.78,785.98L2036.43,785.98Z" style="fill:white;fill-rule:nonzero;"/>
            </g>
            <g transform="matrix(0.603276,0,0,0.634367,-850.581,24.2418)">
                <path d="M2060.08,800.33L2063.58,800.33C2063.83,800.33 2063.98,800.18 2063.98,799.93L2063.98,787.13L2071.28,787.13C2079.13,787.13 2083.38,783.28 2083.38,776.23C2083.38,769.18 2079.13,765.33 2071.28,765.33L2060.08,765.33C2059.88,765.33 2059.73,765.48 2059.73,765.73L2059.73,799.93C2059.73,800.18 2059.88,800.33 2060.08,800.33ZM2063.98,783.48L2063.98,768.98L2071.18,768.98C2076.58,768.98 2079.08,771.33 2079.08,776.23C2079.08,781.13 2076.58,783.48 2071.18,783.48L2063.98,783.48Z" style="fill:white;fill-rule:nonzero;"/>
            </g>
            <g transform="matrix(0.603276,0,0,0.634367,-850.581,24.2418)">
                <path d="M2097.18,800.58C2103.23,800.58 2107.28,797.48 2108.28,793.03C2108.33,792.83 2108.18,792.68 2107.88,792.68L2104.68,792.68C2104.43,792.68 2104.28,792.78 2104.23,793.03C2103.38,795.58 2100.88,797.18 2097.18,797.18C2092.28,797.18 2089.38,794.13 2089.08,789.08L2108.03,789.08C2108.28,789.08 2108.43,788.93 2108.43,788.68L2108.43,787.68C2108.43,779.63 2104.18,774.73 2097.18,774.73C2089.68,774.73 2084.83,779.78 2084.83,787.68C2084.83,795.53 2089.63,800.58 2097.18,800.58ZM2089.08,785.98C2089.48,780.98 2092.38,778.13 2097.18,778.13C2101.48,778.13 2104.18,781.03 2104.43,785.98L2089.08,785.98Z" style="fill:white;fill-rule:nonzero;"/>
            </g>
            <g transform="matrix(0.603276,0,0,0.634367,-850.581,24.2418)">
                <path d="M2112.33,800.33L2115.68,800.33C2115.93,800.33 2116.08,800.18 2116.08,799.93L2116.08,778.53L2125.28,778.53C2125.53,778.53 2125.68,778.38 2125.68,778.13L2125.68,775.38C2125.68,775.13 2125.53,774.98 2125.28,774.98L2117.48,774.98C2113.88,774.98 2111.93,776.93 2111.93,780.53L2111.93,799.93C2111.93,800.18 2112.08,800.33 2112.33,800.33Z" style="fill:white;fill-rule:nonzero;"/>
            </g>
            <g transform="matrix(0.603276,0,0,0.634367,-850.581,24.2418)">
                <path d="M2139.43,800.58C2145.38,800.58 2149.53,797.28 2150.48,792.38C2150.53,792.13 2150.33,792.03 2150.08,792.03L2146.88,792.03C2146.63,792.03 2146.48,792.13 2146.43,792.38C2145.48,795.63 2143.13,797.18 2139.43,797.18C2134.33,797.18 2131.23,793.63 2131.23,787.68C2131.23,781.83 2134.33,778.13 2139.43,778.13C2143.03,778.13 2145.43,779.78 2146.18,782.93C2146.28,783.23 2146.38,783.33 2146.63,783.33L2149.88,783.33C2150.13,783.33 2150.33,783.18 2150.28,782.88C2149.43,777.98 2145.23,774.73 2139.43,774.73C2131.98,774.73 2127.03,779.93 2127.03,787.68C2127.03,795.53 2131.88,800.58 2139.43,800.58Z" style="fill:white;fill-rule:nonzero;"/>
            </g>
            <g transform="matrix(0.603276,0,0,0.634367,-850.581,24.2418)">
                <path d="M2165.03,800.58C2171.08,800.58 2175.13,797.48 2176.13,793.03C2176.18,792.83 2176.03,792.68 2175.73,792.68L2172.53,792.68C2172.28,792.68 2172.13,792.78 2172.08,793.03C2171.23,795.58 2168.73,797.18 2165.03,797.18C2160.13,797.18 2157.23,794.13 2156.93,789.08L2175.88,789.08C2176.13,789.08 2176.28,788.93 2176.28,788.68L2176.28,787.68C2176.28,779.63 2172.03,774.73 2165.03,774.73C2157.53,774.73 2152.68,779.78 2152.68,787.68C2152.68,795.53 2157.48,800.58 2165.03,800.58ZM2156.93,785.98C2157.33,780.98 2160.23,778.13 2165.03,778.13C2169.33,778.13 2172.03,781.03 2172.28,785.98L2156.93,785.98Z" style="fill:white;fill-rule:nonzero;"/>
            </g>
            <g transform="matrix(0.603276,0,0,0.634367,-850.581,24.2418)">
                <path d="M2180.33,800.33L2183.73,800.33C2183.93,800.33 2184.08,800.18 2184.08,799.93L2184.08,785.88C2184.08,780.88 2186.43,778.28 2190.83,778.28C2195.23,778.28 2197.28,780.73 2197.28,785.88L2197.28,799.93C2197.28,800.18 2197.43,800.33 2197.68,800.33L2201.03,800.33C2201.28,800.33 2201.43,800.18 2201.43,799.93L2201.43,785.88C2201.43,778.58 2198.23,774.73 2192.38,774.73C2188.68,774.73 2185.83,776.38 2184.08,779.38L2183.93,779.38L2183.93,775.38C2183.93,775.13 2183.78,774.98 2183.53,774.98L2180.33,774.98C2180.13,774.98 2179.98,775.13 2179.98,775.38L2179.98,799.93C2179.98,800.18 2180.13,800.33 2180.33,800.33Z" style="fill:white;fill-rule:nonzero;"/>
            </g>
            <g transform="matrix(0.603276,0,0,0.634367,-850.581,24.2418)">
                <path d="M2214.28,800.33L2219.53,800.33C2219.78,800.33 2219.93,800.18 2219.93,799.93L2219.93,797.38C2219.93,797.18 2219.78,797.03 2219.53,797.03L2212.88,797.03L2212.88,778.33L2219.53,778.33C2219.78,778.33 2219.93,778.13 2219.93,777.93L2219.93,775.38C2219.93,775.13 2219.78,774.98 2219.53,774.98L2212.88,774.98L2212.88,767.88C2212.88,767.63 2212.73,767.48 2212.48,767.48L2209.13,767.48C2208.88,767.48 2208.73,767.63 2208.73,767.88L2208.73,774.98L2203.98,774.98C2203.78,774.98 2203.63,775.13 2203.63,775.38L2203.63,777.93C2203.63,778.13 2203.78,778.33 2203.98,778.33L2208.73,778.33L2208.73,794.78C2208.73,798.38 2210.68,800.33 2214.28,800.33Z" style="fill:white;fill-rule:nonzero;"/>
            </g>
        </g>
        <g transform="matrix(2.47756,0,0,3.77085,-20359.3,-13787.2)">
            <g transform="matrix(47.2516,0,0,47.2516,11158.8,5167.03)">
            </g>
            <text x="11085.6px" y="5167.03px" style="font-family:'Sora-Bold', 'Sora';font-weight:700;font-size:47.252px;fill:white;">T<tspan x="11112.9px " y="5167.03px ">M</tspan></text>
        </g>
    </g>
</svg>
